<svg xmlns="http://www.w3.org/2000/svg" viewBox="0 0 442.31 590.44"><title>Avatar</title><g id="Layer_2" data-name="Layer 2"><g id="Layer_1-2" data-name="Layer 1"><path d="M221.09,590.28c-49,0-98-.49-147,.15C27.53,591-4,551.55.41,508.55,7,444.51,33.84,391,82.87,348.89c12.2-10.47,25.06-19.84,41.51-22.86,15-2.75,29.14.51,43.28,4.63,22.87,6.66,46.05,11.77,69.94,7.91a428.22,428.22,0,0,0,46.23-10.42c25.16-7,47.26-1.87,67.5,14.15,54.45,43.11,84.22,99.55,90.66,168.36,3.39,36.3-19.92,69.26-54.09,77.52a74.8,74.8,0,0,1-17.32,2C320.75,590.35,270.92,590.28,221.09,590.28Z"/><path d="M220.46,290.6c-78.78-.08-143-65.38-142.95-145.26C77.61,65.17,142.24-.28,221,0c79.64.29,143.9,65.41,143.71,145.64C364.56,226,300.2,290.69,220.46,290.6Z"/></g></g></svg>