<svg xmlns="http://www.w3.org/2000/svg" viewBox="0 0 209.05 112.35"><defs><style>.cls-1{fill:#f2f3f2;}.cls-11,.cls-2,.cls-3{fill:none;}.cls-10,.cls-11,.cls-2,.cls-3{stroke:#45534a;stroke-miterlimit:10;}.cls-2{stroke-linecap:round;}.cls-2,.cls-3{stroke-width:1.5px;}.cls-4{fill:#45534a;}.cls-5{fill:#868f89;}.cls-10,.cls-6{fill:#fff;}.cls-7{fill:#b6bcb8;}.cls-8{fill:#dee0de;}.cls-9{fill:#fffffe;}.cls-10{stroke-width:2px;}.cls-11{stroke-width:1.34px;}</style></defs><title>Asset 2</title><g id="Layer_2" data-name="Layer 2"><g id="Video_Tutorials" data-name="Video Tutorials"><path class="cls-1" d="M9.23,22.09H192.66a8.69,8.69,0,0,1,8.69,8.69h0a8.7,8.7,0,0,1-8.69,8.7H156.81a7.57,7.57,0,0,0-7.57,7.57h0a7.57,7.57,0,0,0,7.57,7.57h43.87A8.37,8.37,0,0,1,209.05,63h0a8.37,8.37,0,0,1-8.37,8.37h-22a15.17,15.17,0,0,1-15.17,15.17h0a6.7,6.7,0,0,0-6.7,6.7v17.86H60.54v-1.47A16.25,16.25,0,0,0,44.45,93.37L16.67,93a9.28,9.28,0,0,1-9.19-9.28h0a9.27,9.27,0,0,1,9.28-9.28H44.48a15.3,15.3,0,0,1,15.3-15.31h1.3a9.31,9.31,0,0,0,9.31-9.31h0a9.31,9.31,0,0,0-9.31-9.32H9.23A9.22,9.22,0,0,1,0,31.32H0A9.23,9.23,0,0,1,9.23,22.09Z"/><line class="cls-2" x1="53.17" y1="18.61" x2="57.45" y2="18.61"/><line class="cls-2" x1="55.31" y1="20.75" x2="55.31" y2="16.48"/><line class="cls-2" x1="184.15" y1="48.88" x2="188.43" y2="48.88"/><line class="cls-2" x1="186.29" y1="51.01" x2="186.29" y2="46.74"/><line class="cls-2" x1="115.95" y1="29.51" x2="118.97" y2="26.48"/><line class="cls-2" x1="118.97" y1="29.51" x2="115.95" y2="26.48"/><line class="cls-2" x1="11.7" y1="57.31" x2="14.72" y2="54.29"/><line class="cls-2" x1="14.72" y1="57.31" x2="11.7" y2="54.29"/><line class="cls-3" x1="31.87" y1="31.09" x2="72.59" y2="31.09"/><line class="cls-3" x1="17.79" y1="55.83" x2="58.5" y2="55.83"/><line class="cls-3" x1="82.93" y1="18.61" x2="65.53" y2="18.61"/><line class="cls-3" x1="60.46" y1="18.61" x2="64.03" y2="18.61"/><line class="cls-3" x1="181.18" y1="48.88" x2="163.78" y2="48.88"/><line class="cls-3" x1="158.71" y1="48.88" x2="162.28" y2="48.88"/><path class="cls-4" d="M40.59,68.55a1.23,1.23,0,1,1-1.22-1.22A1.22,1.22,0,0,1,40.59,68.55Z"/><path class="cls-4" d="M36.92,16.14a1.23,1.23,0,1,1-1.22-1.22A1.22,1.22,0,0,1,36.92,16.14Z"/><path class="cls-4" d="M145.62,13.62a1.23,1.23,0,1,1-1.23-1.23A1.23,1.23,0,0,1,145.62,13.62Z"/><path class="cls-4" d="M177.84,91.11a1.22,1.22,0,1,1-1.22-1.22A1.22,1.22,0,0,1,177.84,91.11Z"/><circle class="cls-4" cx="155.63" cy="36.21" r="0.73"/><path class="cls-4" d="M109.17,15.41a.73.73,0,1,1-.73-.73A.73.73,0,0,1,109.17,15.41Z"/><path class="cls-4" d="M43.32,48.16a.73.73,0,1,1-.73-.73A.73.73,0,0,1,43.32,48.16Z"/><path class="cls-5" d="M70.49,38.42h75.57a4.44,4.44,0,0,1,4.44,4.44V88.65a0,0,0,0,1,0,0H66.05a0,0,0,0,1,0,0V42.85A4.44,4.44,0,0,1,70.49,38.42Z"/><path class="cls-3" d="M66.05,70.68v-28a4.22,4.22,0,0,1,4.23-4.22h8.55"/><path class="cls-3" d="M84.42,38.42h61.85a4.23,4.23,0,0,1,4.23,4.22v19"/><line class="cls-3" x1="79.85" y1="38.42" x2="83.29" y2="38.42"/><rect class="cls-6" x="70.63" y="43.33" width="75.37" height="39.67"/><rect class="cls-6" x="95.55" y="96.26" width="25.44" height="15.06"/><rect class="cls-7" x="95.55" y="96.26" width="25.44" height="7.53"/><rect class="cls-3" x="95.55" y="96.26" width="25.44" height="15.06"/><path class="cls-6" d="M66.05,86.8H150.5a0,0,0,0,1,0,0v9.4a2,2,0,0,1-2,2H68.05a2,2,0,0,1-2-2V86.8A0,0,0,0,1,66.05,86.8Z"/><line class="cls-3" x1="114.05" y1="98.2" x2="130" y2="98.2"/><line class="cls-3" x1="131.5" y1="86.8" x2="114.05" y2="86.8"/><line class="cls-3" x1="90.61" y1="111.6" x2="126.27" y2="111.6"/><rect class="cls-8" x="75.97" y="49.28" width="32.47" height="19.73" rx="1.07"/><rect class="cls-3" x="75.97" y="49.28" width="32.47" height="19.73" rx="1.07"/><path class="cls-5" d="M96.5,59.78l-7.84,4.53a.74.74,0,0,1-1.11-.64V54.61A.74.74,0,0,1,88.66,54L96.5,58.5A.74.74,0,0,1,96.5,59.78Z"/><path class="cls-3" d="M96.5,59.78l-7.84,4.53a.74.74,0,0,1-1.11-.64V54.61A.74.74,0,0,1,88.66,54L96.5,58.5A.74.74,0,0,1,96.5,59.78Z"/><line class="cls-3" x1="75.97" y1="74.41" x2="91.63" y2="74.41"/><line class="cls-3" x1="128.3" y1="52.3" x2="143.96" y2="52.3"/><line class="cls-3" x1="128.3" y1="57.13" x2="136.13" y2="57.13"/><line class="cls-3" x1="128.3" y1="66.59" x2="143.96" y2="66.59"/><line class="cls-3" x1="128.3" y1="71.42" x2="136.13" y2="71.42"/><line class="cls-3" x1="128.3" y1="80.88" x2="143.96" y2="80.88"/><line class="cls-3" x1="74.95" y1="78.66" x2="109.77" y2="78.66"/><rect class="cls-5" x="115.72" y="49.37" width="10.56" height="10.56"/><rect class="cls-5" x="115.72" y="63.73" width="10.56" height="10.56"/><rect class="cls-5" x="115.72" y="78.08" width="10.56" height="5.28"/><rect class="cls-5" x="39.37" y="72.67" width="51.31" height="36.88" rx="1"/><line class="cls-3" x1="79.38" y1="72.67" x2="82.93" y2="72.67"/><path class="cls-3" d="M40.64,109.55a1.27,1.27,0,0,1-1.27-1.27V74a1.27,1.27,0,0,1,1.27-1.28H77.11"/><path class="cls-3" d="M84.42,72.67h5A1.28,1.28,0,0,1,90.68,74v9.83"/><rect class="cls-6" x="41.86" y="75.57" width="46.05" height="29.93"/><path class="cls-6" d="M89.78,111.6H39.7a2.44,2.44,0,0,1-2.42-2.06l-.36-2.17H60.13l.89,1.27h6.41l1-1.27H92.85l-.31,1.89A2.8,2.8,0,0,1,89.78,111.6Z"/><path class="cls-3" d="M89.78,111.6H39.7a2.44,2.44,0,0,1-2.42-2.06l-.36-2.17H60.13l.89,1.27h6.41l1-1.27H92.85l-.31,1.89A2.8,2.8,0,0,1,89.78,111.6Z"/><path class="cls-5" d="M70.28,91.74l-7.73,4.47a.73.73,0,0,1-1.1-.63V86.65a.73.73,0,0,1,1.1-.64l7.73,4.47A.72.72,0,0,1,70.28,91.74Z"/><path class="cls-3" d="M70.28,91.74l-7.73,4.47a.73.73,0,0,1-1.1-.63V86.65a.73.73,0,0,1,1.1-.64l7.73,4.47A.72.72,0,0,1,70.28,91.74Z"/><path class="cls-8" d="M134.5,69.26H143a1.35,1.35,0,0,1,1.35,1.35V105A1.35,1.35,0,0,1,143,106.4H134.5a1.36,1.36,0,0,1-1.36-1.36V70.62A1.35,1.35,0,0,1,134.5,69.26Z"/><rect class="cls-5" x="147.66" y="64.11" width="6.29" height="42.29" rx="1.35"/><rect class="cls-9" x="149.85" y="72.55" width="2.19" height="26.72"/><rect class="cls-6" x="157.29" y="67.94" width="9.75" height="38.46" rx="1.35"/><path class="cls-3" d="M133.14,94.89V71.27a2,2,0,0,1,2-2h7.24a2,2,0,0,1,2,2V87.82"/><path class="cls-3" d="M147.66,87V66.11a2,2,0,0,1,2-2h2.12A2.17,2.17,0,0,1,154,66.27V87"/><path class="cls-3" d="M157.29,88.32V70a2,2,0,0,1,2-2H165a2,2,0,0,1,2,2V94.08"/><line class="cls-3" x1="135.89" y1="73.7" x2="141.64" y2="73.7"/><line class="cls-3" x1="135.89" y1="78.3" x2="141.64" y2="78.3"/><line class="cls-3" x1="135.89" y1="82.9" x2="141.64" y2="82.9"/><line class="cls-3" x1="135.89" y1="87.51" x2="141.64" y2="87.51"/><line class="cls-3" x1="135.89" y1="92.11" x2="139.02" y2="92.11"/><line class="cls-3" x1="135.89" y1="96.71" x2="141.64" y2="96.71"/><line class="cls-3" x1="135.89" y1="101.32" x2="141.64" y2="101.32"/><path class="cls-5" d="M165.62,74.85a3.46,3.46,0,1,1-3.46-3.45A3.46,3.46,0,0,1,165.62,74.85Z"/><path class="cls-5" d="M165.62,97.86a3.46,3.46,0,1,1-3.46-3.45A3.46,3.46,0,0,1,165.62,97.86Z"/><path class="cls-7" d="M171.41,100.79h-.21a7.41,7.41,0,0,0-11.13-4.18,10.16,10.16,0,0,0-19.74-1.46,7.26,7.26,0,0,0-1.82-.24,7,7,0,0,0-6.88,5.88h-1.14a5.23,5.23,0,0,0-5.21,5.21v.39a5.23,5.23,0,0,0,5.21,5.21h40.92a5.23,5.23,0,0,0,5.21-5.21V106A5.23,5.23,0,0,0,171.41,100.79Z"/><path class="cls-6" d="M166.61,102.07h-.18a6.54,6.54,0,0,0-6.28-4.72,6.47,6.47,0,0,0-3.53,1,9,9,0,0,0-17.41-1.29,6,6,0,0,0-1.6-.22,6.16,6.16,0,0,0-6.07,5.19h-1a4.6,4.6,0,0,0-4.59,4.6V107a4.6,4.6,0,0,0,4.59,4.6h36.07a4.61,4.61,0,0,0,4.6-4.6v-.33A4.61,4.61,0,0,0,166.61,102.07Z"/><path class="cls-3" d="M156.65,95.79a8.46,8.46,0,0,0-11.41-2.68"/><path class="cls-3" d="M138.64,94.88a3.61,3.61,0,0,1,3.62,3.61"/><path class="cls-3" d="M171.41,100.79h-.21a7.41,7.41,0,0,0-11.13-4.18,10.16,10.16,0,0,0-19.74-1.46,7.26,7.26,0,0,0-1.82-.24,7,7,0,0,0-6.88,5.88h-1.14a5.23,5.23,0,0,0-5.21,5.21v.39a5.23,5.23,0,0,0,5.21,5.21h40.92a5.23,5.23,0,0,0,5.21-5.21V106A5.23,5.23,0,0,0,171.41,100.79Z"/><rect class="cls-6" x="75.41" y="85.59" width="36.14" height="26.01" rx="1.91"/><path class="cls-3" d="M108.05,85.59h1.82a1.68,1.68,0,0,1,1.68,1.68v22.65a1.68,1.68,0,0,1-1.68,1.68H77.09a1.68,1.68,0,0,1-1.68-1.68V87.27a1.68,1.68,0,0,1,1.68-1.68h27.37"/><line class="cls-3" x1="105.39" y1="85.59" x2="107.44" y2="85.59"/><line class="cls-3" x1="78.21" y1="95.26" x2="78.21" y2="101.93"/><rect class="cls-7" x="80.09" y="87.81" width="26.43" height="21.56"/><circle class="cls-3" cx="108.21" cy="98.59" r="0.94"/><path class="cls-5" d="M97,96.91l-6.44,3.71a.61.61,0,0,1-.91-.53V92.67a.61.61,0,0,1,.91-.53L97,95.85A.62.62,0,0,1,97,96.91Z"/><path class="cls-3" d="M97,96.91l-6.44,3.71a.61.61,0,0,1-.91-.53V92.67a.61.61,0,0,1,.91-.53L97,95.85A.62.62,0,0,1,97,96.91Z"/><line class="cls-3" x1="83.34" y1="105.22" x2="103.53" y2="105.22"/><line class="cls-3" x1="87.86" y1="106.83" x2="87.86" y2="103.62"/><line class="cls-3" x1="16.32" y1="111.6" x2="19.06" y2="111.6"/><line class="cls-3" x1="186.27" y1="111.6" x2="192.32" y2="111.6"/><line class="cls-3" x1="20.88" y1="111.6" x2="184.7" y2="111.6"/><circle class="cls-6" cx="106.12" cy="21.9" r="21.02"/><polyline class="cls-10" points="96.59 26.25 102.92 31.57 116.84 12.22"/><path class="cls-7" d="M103.76,3.64A21,21,0,0,1,121.27,36.3a21,21,0,1,0-31.8-27A20.92,20.92,0,0,1,103.76,3.64Z"/><path class="cls-11" d="M88.5,33.37a21,21,0,1,1,3.71,4.29c-.37-.33-.72-.66-1.07-1"/></g></g></svg>